<?xml version="1.0" encoding="utf-8"?>
<!-- Generator: Adobe Illustrator 27.7.0, SVG Export Plug-In . SVG Version: 6.00 Build 0)  -->
<svg version="1.1" id="Layer_1" xmlns="http://www.w3.org/2000/svg" xmlns:xlink="http://www.w3.org/1999/xlink" x="0px" y="0px"
	 viewBox="0 0 141.7 141.7" style="enable-background:new 0 0 141.7 141.7;" xml:space="preserve">
<style type="text/css">
	.st0{fill:#F5BD5B;}
	.st1{fill:#BFC2F5;}
</style>
<g id="SvgjsG1519" transform="matrix(1.8576,0,0,1.8576,55.5664,-23.22)">
	<path class="st0" d="M44,86.4h-71.3c-0.5,0-0.9-0.4-0.9-0.9v-2.8c0-0.5,0.4-0.9,0.9-0.9H44c0.5,0,0.9,0.4,0.9,0.9v2.8
		C44.9,86,44.5,86.4,44,86.4z"/>
	<path class="st1" d="M-15.2,53.6v21.6c0,1-0.8,1.9-1.9,1.9h-5.6c-1,0-1.9-0.8-1.9-1.9V53.6c0-1,0.8-1.9,1.9-1.9h5.6
		C-16,51.7-15.2,52.5-15.2,53.6z"/>
	<path class="st1" d="M3.6,36.7v38.5c0,1-0.8,1.9-1.9,1.9h-5.6c-1,0-1.9-0.8-1.9-1.9V36.7c0-1,0.8-1.9,1.9-1.9h5.6
		C2.8,34.8,3.6,35.6,3.6,36.7z"/>
	<path class="st1" d="M22.4,46.1v29.1c0,1-0.8,1.9-1.9,1.9h-5.6c-1,0-1.9-0.8-1.9-1.9V46.1c0-1,0.8-1.9,1.9-1.9h5.6
		C21.5,44.2,22.4,45,22.4,46.1z"/>
	<path class="st1" d="M41.2,36.7v38.5c0,1-0.8,1.9-1.9,1.9h-5.6c-1,0-1.9-0.8-1.9-1.9V36.7c0-1,0.8-1.9,1.9-1.9h5.6
		C40.3,34.8,41.2,35.6,41.2,36.7z"/>
	<g>
		<path class="st0" d="M36.5,16c-2.6,0-4.7,2.1-4.7,4.7c0,0.4,0.1,0.8,0.2,1.2l-10.6,5.3c-0.9-1.1-2.2-1.8-3.7-1.8s-2.8,0.7-3.7,1.8
			L3.4,21.9c0.1-0.4,0.2-0.8,0.2-1.2c0-2.6-2.1-4.7-4.7-4.7s-4.7,2.1-4.7,4.7c0,0.9,0.3,1.7,0.7,2.4l-12,10.8
			c-0.8-0.6-1.7-0.9-2.8-0.9c-2.6,0-4.7,2.1-4.7,4.7s2.1,4.7,4.7,4.7s4.7-2.1,4.7-4.7c0-0.9-0.3-1.7-0.7-2.4l12-10.8
			c0.8,0.6,1.7,0.9,2.8,0.9c1.5,0,2.8-0.7,3.7-1.8l10.6,5.3c-0.1,0.4-0.2,0.8-0.2,1.2c0,2.6,2.1,4.7,4.7,4.7s4.7-2.1,4.7-4.7
			c0-0.4-0.1-0.8-0.2-1.2l10.6-5.3c0.9,1.1,2.2,1.8,3.7,1.8c2.6,0,4.7-2.1,4.7-4.7S39.1,16,36.5,16z M-19.9,39.5
			c-1,0-1.9-0.8-1.9-1.9c0-1,0.8-1.9,1.9-1.9s1.9,0.8,1.9,1.9C-18,38.7-18.8,39.5-19.9,39.5z M-1.1,22.6c-1,0-1.9-0.8-1.9-1.9
			s0.8-1.9,1.9-1.9s1.9,0.8,1.9,1.9S0,22.6-1.1,22.6z M17.7,32c-1,0-1.9-0.8-1.9-1.9s0.8-1.9,1.9-1.9s1.9,0.8,1.9,1.9
			S18.7,32,17.7,32z M36.5,22.6c-1,0-1.9-0.8-1.9-1.9s0.8-1.9,1.9-1.9c1,0,1.9,0.8,1.9,1.9S37.5,22.6,36.5,22.6z"/>
	</g>
</g>
</svg>
