<?xml version="1.0" encoding="iso-8859-1"?>
<!-- Uploaded to: SVG Repo, www.svgrepo.com, Generator: SVG Repo Mixer Tools -->
<svg fill="#000000" height="800px" width="800px" version="1.1" id="Capa_1" xmlns="http://www.w3.org/2000/svg" xmlns:xlink="http://www.w3.org/1999/xlink" 
	 viewBox="0 0 60 60" xml:space="preserve">
<g>
	<g>
		<path d="M36.786,25h-2.143c-2.402,0-4.214,1.72-4.214,4c0,1.226,0.535,2.278,1.393,3c-0.858,0.722-1.393,1.774-1.393,3
			c0,2.28,1.812,4,4.214,4h2.143C39.188,39,41,37.28,41,35c0-1.226-0.535-2.278-1.393-3C40.465,31.278,41,30.226,41,29
			C41,26.72,39.188,25,36.786,25z M36.786,37h-2.143c-1.101,0-2.214-0.687-2.214-2s1.114-2,2.214-2h2.143c1.1,0,2.214,0.686,2.214,2
			S37.886,37,36.786,37z M36.786,31h-2.143c-1.101,0-2.214-0.687-2.214-2s1.114-2,2.214-2h2.143c1.1,0,2.214,0.686,2.214,2
			S37.886,31,36.786,31z"/>
		<path d="M25.357,25h-2.143C20.812,25,19,26.72,19,29c0,1.226,0.535,2.278,1.393,3C19.535,32.722,19,33.774,19,35
			c0,2.28,1.812,4,4.214,4h2.143c2.402,0,4.214-1.72,4.214-4c0-1.226-0.535-2.278-1.393-3c0.858-0.722,1.393-1.774,1.393-3
			C29.571,26.72,27.759,25,25.357,25z M25.357,37h-2.143C22.114,37,21,36.313,21,35s1.114-2,2.214-2h2.143
			c1.101,0,2.214,0.687,2.214,2S26.457,37,25.357,37z M25.357,31h-2.143C22.114,31,21,30.313,21,29s1.114-2,2.214-2h2.143
			c1.101,0,2.214,0.687,2.214,2S26.457,31,25.357,31z"/>
		<path d="M50.488,25.127c-0.43-0.241-0.83-0.507-1.199-0.797c-0.007-0.005-0.013-0.011-0.02-0.017
			c-2.593-2.053-3.669-5.342-3.199-9.802c0.538-5.104,2.877-9.853,3.582-11.187c0.396-0.751,0.342-1.649-0.14-2.347
			c-0.482-0.697-1.306-1.062-2.149-0.959l-4.79,0.599c-0.763,0.095-1.419,0.563-1.757,1.254c-0.149,0.306-0.349,0.696-0.595,1.143
			C37.359,4.112,34.01,4.696,30.5,4.696c-4.063,0-7.956-0.795-11.016-2.234c-0.114-0.218-0.216-0.421-0.3-0.592
			c-0.337-0.69-0.994-1.158-1.756-1.253l-4.791-0.599c-0.84-0.107-1.667,0.261-2.149,0.959c-0.482,0.697-0.536,1.596-0.14,2.347
			c0.704,1.334,3.043,6.083,3.582,11.187c0.47,4.459-0.606,7.747-3.197,9.8c-0.008,0.006-0.016,0.013-0.024,0.019
			c-0.369,0.29-0.768,0.556-1.198,0.797C9.196,25.304,9,25.638,9,26v33c0,0.553,0.448,1,1,1h5h30h5c0.552,0,1-0.447,1-1V26
			C51,25.638,50.804,25.304,50.488,25.127z M14,58h-3V26.571c1.221-0.759,2.221-1.673,3-2.739V58z M38.552,5.664
			c-1.107,1.55-2.531,3.165-4.245,4.349c0,0,0,0,0,0.001c-1.805,1.246-4.04,1.6-6.105,1.1c-0.882-0.214-1.737-0.568-2.508-1.101
			c-0.464-0.32-0.907-0.674-1.328-1.048c-0.006-0.006-0.012-0.012-0.019-0.017c-1.262-1.127-2.325-2.447-3.16-3.661
			C26.395,6.989,33.138,7.136,38.552,5.664z M44.08,14.301c-0.131,1.244-0.132,2.406-0.042,3.508C44.026,17.873,44,17.932,44,18v40
			H16V17.923c0-0.063-0.024-0.119-0.035-0.179c0.084-1.083,0.083-2.223-0.045-3.443c-0.576-5.459-3.055-10.496-3.802-11.91
			c-0.063-0.118-0.026-0.215,0.016-0.274c0.042-0.062,0.122-0.133,0.256-0.113l4.792,0.599c0.091,0.012,0.166,0.065,0.206,0.146
			c0.129,0.265,0.297,0.592,0.494,0.958v0.001c0.003,0.005,0.006,0.011,0.009,0.015c0.848,1.574,2.313,3.936,4.346,5.975
			c0.02,0.02,0.039,0.04,0.059,0.06c0.328,0.326,0.67,0.644,1.028,0.948c0.036,0.03,0.072,0.059,0.108,0.089
			c0.362,0.303,0.734,0.595,1.125,0.865c3.256,2.248,7.631,2.248,10.887,0c0.331-0.229,0.648-0.475,0.958-0.727
			c0.069-0.056,0.137-0.112,0.205-0.169c0.3-0.253,0.593-0.512,0.873-0.781c0.022-0.021,0.042-0.043,0.064-0.064
			c0.262-0.254,0.513-0.515,0.757-0.779c0.062-0.067,0.123-0.133,0.184-0.2c0.253-0.281,0.497-0.563,0.729-0.848
			c0.029-0.036,0.056-0.071,0.085-0.107c0.219-0.272,0.428-0.544,0.629-0.815c0.034-0.046,0.069-0.092,0.103-0.138
			c0.222-0.304,0.431-0.603,0.629-0.898c0.008-0.012,0.016-0.024,0.024-0.037c0.912-1.365,1.563-2.593,1.931-3.348
			c0.04-0.082,0.115-0.136,0.207-0.147l4.791-0.599l0,0c0.138-0.021,0.214,0.053,0.256,0.113s0.078,0.156,0.016,0.274
			C47.136,3.805,44.656,8.842,44.08,14.301z M49,58h-3V23.832c0.779,1.066,1.78,1.981,3,2.739V58z"/>
	</g>
</g>
</svg>