<?xml version="1.0" encoding="iso-8859-1"?>
<!-- Uploaded to: SVG Repo, www.svgrepo.com, Generator: SVG Repo Mixer Tools -->
<svg fill="#000000" height="800px" width="800px" version="1.1" id="Capa_1" xmlns="http://www.w3.org/2000/svg" xmlns:xlink="http://www.w3.org/1999/xlink" 
	 viewBox="0 0 60 60" xml:space="preserve">
<g>
	<path d="M59.975,51.776l-8.729-37.828c0.189-0.049,0.367-0.132,0.5-0.281c0.19-0.212,0.28-0.495,0.249-0.777l-1-9
		C50.938,3.383,50.51,3,50,3H36H23H10C9.49,3,9.062,3.383,9.006,3.89l-1,9c-0.032,0.282,0.059,0.565,0.249,0.777
		c0.133,0.148,0.311,0.232,0.5,0.281L0.026,51.776c-0.118,0.511,0.179,1.026,0.681,1.181l13,4C13.802,56.986,13.901,57,14,57
		c0.107,0,0.214-0.018,0.316-0.052l0.22-0.073l11.78-3.927c0.233-0.077,0.43-0.238,0.552-0.452L30,47.016l3.132,5.48
		c0.138,0.242,0.372,0.416,0.643,0.479l13,3C46.849,55.992,46.925,56,47,56c0.001,0,0.002,0,0.003,0c0.081,0,0.161-0.009,0.24-0.03
		l2.465-0.616l9.535-2.384C59.772,52.838,60.097,52.307,59.975,51.776z M49.883,12H41h-4V5h12.105L49.883,12z M46.991,53.972
		l-2.718-0.628L36.225,14h3.958l8.11,39.646L46.991,53.972z M24,12v-1h11v1H24z M9.71,53.634L17.816,14h3.959l-8.341,40.78
		L9.71,53.634z M35,9H24V8h11V9z M35,5v1H24V5H35z M10.895,5H22v7h-5h-6.883L10.895,5z M10.796,14h4.98L7.789,53.043l-5.605-1.725
		L10.796,14z M25.322,51.172l-9.775,3.259L23.816,14H29v30.735L25.322,51.172z M31,44.735V14h3.184l7.947,38.85l-7.479-1.726
		L31,44.735z M50.235,53.161L42.225,14h6.98l8.6,37.268L50.235,53.161z"/>
</g>
</svg>