<?xml version="1.0" encoding="iso-8859-1"?>
<!-- Uploaded to: SVG Repo, www.svgrepo.com, Generator: SVG Repo Mixer Tools -->
<svg fill="#000000" height="800px" width="800px" version="1.1" id="Capa_1" xmlns="http://www.w3.org/2000/svg" xmlns:xlink="http://www.w3.org/1999/xlink" 
	 viewBox="0 0 59.91 59.91" xml:space="preserve">
<g>
	<g>
		<path d="M46.688,28.45c-2.207-3.564-4.509-6.031-4.641-6.17c-6.942-6.699-6.141-12.873-6.104-13.128
			c0.044-0.288-0.039-0.582-0.229-0.804C35.524,8.128,35.247,8,34.955,8h-1V3.857c0-2.127-1.794-3.857-4-3.857s-4,1.73-4,3.857V8h-1
			c-0.292,0-0.569,0.128-0.759,0.349c-0.19,0.222-0.274,0.516-0.229,0.804c0.01,0.063,0.89,6.379-6.139,13.163
			c-0.097,0.104-2.399,2.57-4.606,6.135c-4.674,7.548-4.338,16.833,0.855,23.653c2.795,3.672,6.508,6.101,11.036,7.218
			c1.584,0.392,3.213,0.588,4.843,0.588c1.629-0.001,3.259-0.196,4.843-0.588c4.528-1.117,8.241-3.546,11.035-7.218
			C51.026,45.283,51.362,35.999,46.688,28.45z M34.251,13c0.07,0.319,0.156,0.654,0.254,1H25.4c0.099-0.346,0.185-0.681,0.255-1
			H34.251z M25.962,11c0.031-0.377,0.044-0.714,0.046-1h7.893c0.001,0.287,0.014,0.623,0.045,1H25.962z M27.955,3.857
			c0-1.024,0.897-1.857,2-1.857s2,0.833,2,1.857V8h-4V3.857z M44.241,50.893c-2.303,3.026-5.311,5.101-8.936,6.202
			c2.518-2.125,4.65-6.467,4.65-15.094c0-0.553-0.448-1-1-1s-1,0.447-1,1c0,6.48-1.252,14.127-7,14.921V28c0-0.553-0.448-1-1-1
			s-1,0.447-1,1v28.921c-5.748-0.794-7-8.441-7-14.921c0-0.553-0.448-1-1-1s-1,0.447-1,1c0,8.627,2.132,12.97,4.65,15.094
			c-3.625-1.101-6.633-3.175-8.937-6.202c-4.687-6.156-4.98-14.552-0.746-21.39c2.091-3.378,4.331-5.783,4.329-5.783
			c2.826-2.727,4.477-5.402,5.444-7.72H35.21c0.963,2.311,2.605,4.974,5.414,7.685c0.022,0.023,2.261,2.422,4.364,5.818
			C49.221,36.341,48.928,44.737,44.241,50.893z"/>
		<path d="M25.955,19h8c0.552,0,1-0.447,1-1s-0.448-1-1-1h-8c-0.552,0-1,0.447-1,1S25.402,19,25.955,19z"/>
		<path d="M35.955,20h-12c-0.552,0-1,0.447-1,1s0.448,1,1,1h12c0.552,0,1-0.447,1-1S36.507,20,35.955,20z"/>
	</g>
</g>
</svg>