<?xml version="1.0" encoding="iso-8859-1"?>
<!-- Uploaded to: SVG Repo, www.svgrepo.com, Generator: SVG Repo Mixer Tools -->
<svg fill="#000000" height="800px" width="800px" version="1.1" id="Capa_1" xmlns="http://www.w3.org/2000/svg" xmlns:xlink="http://www.w3.org/1999/xlink" 
	 viewBox="0 0 60 60" xml:space="preserve">
<g>
	<g>
		<path d="M47.823,25.126l1.187-1.187c1.363-1.365,1.363-3.585,0-4.95c-1.365-1.363-3.585-1.363-4.95,0l-1.187,1.187
			c-2.592-1.878-5.607-3.203-8.874-3.805v-0.914c4.219-1.183,7-4.106,7-7.457c0-4.411-4.935-8-11-8S19,3.589,19,8
			c0,3.351,2.781,6.274,7,7.457v0.914c-3.501,0.646-6.714,2.122-9.426,4.219l-1.6-1.6c-1.364-1.362-3.583-1.363-4.949,0
			c-1.365,1.364-1.365,3.586,0,4.95l1.75,1.75C9.393,29.205,8,33.443,8,38c0,12.131,9.869,22,22,22s22-9.869,22-22
			C52,33.195,50.447,28.749,47.823,25.126z M45.475,20.403c0.583-0.583,1.535-0.585,2.122,0c0.584,0.585,0.584,1.537,0,2.122
			l-1.027,1.026c-0.658-0.754-1.367-1.463-2.121-2.121L45.475,20.403z M26,10c-0.552,0-1-0.448-1-1s0.448-1,1-1h8
			c0.552,0,1,0.448,1,1s-0.448,1-1,1H26z M32,12v3.923V16h-4v-0.077V12H32z M21,8c0-3.309,4.037-6,9-6s9,2.691,9,6
			c0,2.259-2.003,4.355-5,5.366V12c1.654,0,3-1.346,3-3s-1.346-3-3-3h-8c-1.654,0-3,1.346-3,3s1.346,3,3,3v1.366
			C23.003,12.355,21,10.259,21,8z M11.439,22.525c-0.585-0.585-0.585-1.537,0-2.122c0.292-0.292,0.677-0.438,1.061-0.438
			c0.384,0,0.769,0.146,1.061,0.438l1.061,1.062L12.5,23.586L11.439,22.525z M30,58c-11.028,0-20-8.972-20-20s8.972-20,20-20
			c4.788,0,9.185,1.695,12.632,4.51l2.858,2.858C48.305,28.815,50,33.212,50,38C50,49.028,41.028,58,30,58z"/>
		<path d="M30,21c-4.67,0-8.904,1.894-11.979,4.952c-0.013,0.011-0.029,0.015-0.041,0.027s-0.016,0.028-0.027,0.041
			C14.894,29.096,13,33.33,13,38s1.894,8.904,4.952,11.979c0.011,0.013,0.015,0.029,0.027,0.041s0.028,0.016,0.041,0.027
			C21.096,53.106,25.33,55,30,55s8.904-1.894,11.979-4.952c0.013-0.011,0.029-0.015,0.041-0.027s0.016-0.028,0.027-0.041
			C45.106,46.904,47,42.67,47,38C47,28.626,39.374,21,30,21z M41.275,47.861l-2.083-2.083c-0.391-0.391-1.023-0.391-1.414,0
			s-0.391,1.023,0,1.414l2.083,2.083c-2.404,2.105-5.478,3.449-8.861,3.674V50c0-0.553-0.447-1-1-1s-1,0.447-1,1v2.949
			c-3.383-0.225-6.457-1.569-8.861-3.674l2.083-2.083c0.391-0.391,0.391-1.023,0-1.414s-1.023-0.391-1.414,0l-2.083,2.083
			c-2.105-2.404-3.449-5.478-3.674-8.861H18c0.553,0,1-0.447,1-1s-0.447-1-1-1h-2.949c0.225-3.383,1.569-6.457,3.674-8.861
			l2.083,2.083c0.195,0.195,0.451,0.293,0.707,0.293s0.512-0.098,0.707-0.293c0.391-0.391,0.391-1.023,0-1.414l-2.083-2.083
			c2.404-2.105,5.478-3.449,8.861-3.674V26c0,0.553,0.447,1,1,1s1-0.447,1-1v-2.949C38.473,23.547,44.453,29.527,44.949,37H42
			c-0.553,0-1,0.447-1,1s0.447,1,1,1h2.949C44.725,42.383,43.38,45.457,41.275,47.861z"/>
		<path d="M38.793,28.793l-6.5,6.5c-0.047,0.047-0.07,0.106-0.106,0.16C31.684,35.173,31.115,35,30.5,35c-1.93,0-3.5,1.57-3.5,3.5
			s1.57,3.5,3.5,3.5s3.5-1.57,3.5-3.5c0-0.615-0.173-1.184-0.453-1.687c0.053-0.036,0.113-0.059,0.16-0.106l6.5-6.5
			c0.391-0.391,0.391-1.023,0-1.414S39.184,28.402,38.793,28.793z M30.5,40c-0.827,0-1.5-0.673-1.5-1.5s0.673-1.5,1.5-1.5
			s1.5,0.673,1.5,1.5S31.327,40,30.5,40z"/>
	</g>
</g>
</svg>